<?xml version="1.0" standalone="no"?>
<!DOCTYPE svg PUBLIC "-//W3C//DTD SVG 20010904//EN"
 "http://www.w3.org/TR/2001/REC-SVG-20010904/DTD/svg10.dtd">
<svg version="1.0" xmlns="http://www.w3.org/2000/svg"
 width="200.000000pt" height="200.000000pt" viewBox="0 0 200.000000 200.000000"
 preserveAspectRatio="xMidYMid meet">
<metadata>
Created by potrace 1.16, written by Peter Selinger 2001-2019
</metadata>
<g transform="translate(0.000000,200.000000) scale(0.100000,-0.100000)"
fill="#000000" stroke="none">
<path d="M884 1218 c-59 -106 -108 -202 -108 -213 -1 -17 6 -20 44 -23 25 -1
51 2 59 7 22 14 3 31 -34 31 l-34 0 92 165 c51 91 95 165 98 165 3 0 46 -74
96 -165 l91 -165 -35 0 c-27 0 -34 -4 -31 -17 4 -25 95 -32 104 -8 7 17 -204
406 -223 412 -6 2 -59 -83 -119 -189z"/>
<path d="M350 881 c0 -6 4 -11 8 -11 9 0 22 -38 40 -111 6 -24 6 -40 -2 -50
-17 -23 -70 -57 -99 -64 -34 -9 -35 -25 -2 -25 65 0 120 43 204 160 30 41 61
81 70 87 20 17 13 21 -30 16 -27 -4 -40 -12 -50 -31 -7 -15 -21 -38 -31 -51
-19 -26 -20 -24 -35 44 -8 36 -12 40 -41 43 -18 2 -32 -1 -32 -7z"/>
<path d="M596 854 c-60 -62 -54 -126 14 -154 92 -38 188 101 117 168 -37 35
-89 30 -131 -14z"/>
<path d="M830 883 c-15 -3 -77 -179 -67 -189 13 -13 38 13 49 50 6 22 13 43
15 46 7 8 23 -24 23 -47 0 -21 24 -53 39 -53 4 0 17 22 30 49 26 57 51 84 51
55 0 -11 -4 -35 -10 -54 -7 -25 -7 -36 3 -42 23 -15 31 -2 58 91 29 101 26
112 -28 94 -25 -9 -44 -31 -74 -90 -17 -32 -29 -29 -29 6 0 60 -23 92 -60 84z"/>
<path d="M1129 863 c-14 -15 -42 -54 -63 -87 -34 -52 -36 -60 -22 -74 13 -14
17 -11 36 21 19 32 27 37 61 37 36 0 39 -2 50 -40 7 -22 18 -40 26 -40 11 0
13 21 11 103 l-3 102 -35 3 c-28 2 -41 -3 -61 -25z"/>
<path d="M1273 875 c2 -5 14 -12 27 -13 21 -4 22 -7 16 -57 -3 -30 -11 -66
-18 -80 -14 -31 -5 -41 24 -28 18 8 27 26 39 78 8 38 22 72 30 75 8 4 24 12
36 18 14 7 24 8 28 2 7 -12 -23 -140 -38 -158 -5 -7 -8 -14 -6 -17 7 -6 161
15 178 25 11 7 -2 9 -41 10 -51 0 -58 2 -58 20 0 14 11 22 38 29 20 6 44 11
52 11 11 1 10 3 -3 11 -11 6 -32 8 -48 5 -20 -4 -29 -2 -29 8 0 23 35 46 71
46 19 0 41 5 49 10 16 10 -1 11 -238 14 -73 1 -111 -2 -109 -9z"/>
</g>
</svg>
