<?xml version="1.0" standalone="no"?>
<!DOCTYPE svg PUBLIC "-//W3C//DTD SVG 20010904//EN"
 "http://www.w3.org/TR/2001/REC-SVG-20010904/DTD/svg10.dtd">
<svg version="1.0" xmlns="http://www.w3.org/2000/svg"
 width="411.000000pt" height="114.000000pt" viewBox="0 0 411.000000 114.000000"
 preserveAspectRatio="xMidYMid meet">

<g transform="translate(0.000000,114.000000) scale(0.100000,-0.100000)"
fill="#000000" stroke="none">
<path d="M577 918 c-19 -31 -41 -214 -34 -278 13 -106 74 -170 134 -140 15 8
32 16 36 18 5 3 4 -4 -1 -14 -45 -85 -84 -313 -51 -302 20 7 79 99 161 253 88
164 135 282 144 357 6 52 5 55 -26 81 -36 31 -65 35 -79 10 -5 -10 -14 -45
-21 -78 -26 -128 -87 -237 -152 -271 l-27 -14 -7 47 c-6 44 0 197 12 273 6 40
-22 80 -56 80 -11 0 -26 -10 -33 -22z"/>
<path d="M3101 878 c-11 -11 -26 -40 -34 -62 -13 -40 -14 -41 -75 -50 -70 -10
-80 -22 -24 -31 20 -4 44 -7 52 -9 8 -1 13 -9 11 -17 -2 -8 -15 -54 -28 -104
-14 -49 -28 -97 -32 -105 -12 -21 -89 -65 -168 -93 -37 -14 -76 -28 -85 -32
-28 -11 -23 22 16 106 43 92 63 166 49 180 -16 16 -84 -1 -109 -28 -18 -19
-23 -21 -33 -9 -6 7 -32 21 -57 31 -56 21 -117 15 -149 -15 -23 -21 -45 -80
-45 -119 0 -15 -14 -30 -46 -49 -25 -15 -79 -49 -120 -76 -41 -26 -78 -45 -81
-42 -4 3 8 57 25 119 37 130 38 149 16 172 -29 29 -70 9 -144 -69 -37 -39 -77
-82 -88 -96 l-21 -25 10 44 c5 24 14 52 19 62 11 20 13 79 4 103 -4 11 -19 16
-51 16 -53 0 -75 -21 -159 -147 -81 -122 -82 -121 -22 66 20 62 20 65 2 78
-19 14 -52 17 -79 7 -25 -10 -45 -57 -52 -123 -5 -57 -8 -62 -47 -88 -34 -23
-52 -28 -101 -28 -40 0 -70 6 -86 17 -25 16 -25 19 -16 66 14 65 -8 125 -65
182 -33 33 -47 40 -72 38 -28 -3 -31 -7 -34 -42 -3 -37 -4 -38 -35 -33 -28 4
-39 -2 -83 -47 -84 -84 -82 -157 6 -240 42 -39 55 -46 91 -46 47 0 97 27 131
70 l23 30 49 -15 c72 -22 126 -19 180 10 46 25 50 24 47 -7 -3 -24 18 -96 29
-103 24 -15 67 36 130 150 34 62 85 127 96 123 3 -2 6 -51 5 -109 -3 -156 22
-163 130 -37 34 40 66 74 70 76 4 2 4 -12 -2 -30 -16 -53 -12 -146 6 -175 15
-22 22 -24 53 -19 20 3 59 21 86 39 28 19 82 53 120 76 l70 41 21 -42 c12 -24
33 -49 48 -56 23 -11 32 -10 69 9 24 12 55 32 69 46 l27 24 6 -35 c9 -50 50
-80 98 -72 55 9 127 43 184 87 28 21 56 39 62 39 8 0 12 -21 12 -58 0 -71 31
-137 79 -169 39 -26 83 -30 101 -8 11 13 8 15 -22 15 -18 0 -44 7 -57 16 -22
16 -23 22 -18 88 3 39 15 109 27 156 12 47 28 108 35 136 21 86 29 94 87 94
44 0 49 2 38 15 -7 8 -25 15 -41 15 -37 0 -43 13 -25 49 15 29 15 30 -20 60
-19 17 -37 31 -39 31 -2 0 -13 -10 -24 -22z m-1842 -217 c15 -36 10 -113 -7
-119 -10 -3 -13 8 -11 44 1 27 -3 59 -9 71 -15 28 -15 33 2 33 7 0 19 -13 25
-29z m-48 -88 c7 -21 18 -48 26 -60 8 -12 12 -31 8 -42 -6 -21 -79 -91 -94
-91 -42 0 -40 109 3 183 15 26 32 47 36 47 5 0 14 -17 21 -37z m1414 -35 c-9
-53 -12 -58 -34 -58 -10 0 -37 -14 -60 -31 -24 -17 -45 -28 -48 -25 -11 10 22
72 60 114 26 27 48 42 64 42 24 0 24 -2 18 -42z"/>
<path d="M3403 691 c-36 -9 -50 -19 -101 -65 -64 -60 -85 -203 -38 -255 39
-43 145 -52 229 -21 62 23 229 122 235 139 7 20 -17 12 -139 -51 -101 -52
-130 -62 -172 -63 -44 0 -53 3 -65 26 -25 43 -9 71 80 137 93 69 141 128 117
143 -8 5 -21 9 -29 9 -8 0 -31 2 -50 5 -19 2 -50 0 -67 -4z m38 -102 c-29 -28
-56 -47 -60 -44 -3 4 18 29 47 57 29 28 56 47 60 43 4 -4 -17 -29 -47 -56z"/>
</g>
</svg>
